<?xml version="1.0" encoding="utf-8"?>
<!-- Generator: Adobe Illustrator 16.0.0, SVG Export Plug-In . SVG Version: 6.00 Build 0)  -->
<!DOCTYPE svg PUBLIC "-//W3C//DTD SVG 1.1//EN" "http://www.w3.org/Graphics/SVG/1.1/DTD/svg11.dtd">
<svg version="1.1" id="Ebene_1" xmlns="http://www.w3.org/2000/svg" xmlns:xlink="http://www.w3.org/1999/xlink" x="0px" y="0px"
	 width="198.425px" height="34.016px" viewBox="0 0 198.425 34.016" enable-background="new 0 0 198.425 34.016"
	 xml:space="preserve">
<g>
	<path d="M8.748,31.915H8.035L6.73,27.777H6.712l-1.304,4.138H4.694l-1.539-4.786h0.647l1.257,4.138h0.019l1.333-4.138h0.713
		l1.267,4.138h0.019l1.322-4.138h0.592L8.748,31.915z"/>
</g>
<g>
	<path d="M11.975,25.854h-0.591v-0.789h0.591V25.854z M11.384,27.129h0.591v4.786h-0.591V27.129z"/>
</g>
<g>
	<path d="M13.728,28.198c0-0.525,0-0.722-0.038-1.069h0.591v0.919H14.3c0.216-0.534,0.62-1.032,1.23-1.032
		c0.14,0,0.309,0.029,0.412,0.057v0.619c-0.122-0.037-0.281-0.057-0.431-0.057c-0.939,0-1.192,1.052-1.192,1.914v2.366h-0.591
		V28.198z"/>
</g>
<g>
	<path d="M19.865,31.219c0.356,0.179,0.789,0.301,1.248,0.301c0.563,0,1.061-0.309,1.061-0.854c0-1.135-2.299-0.957-2.299-2.346
		c0-0.947,0.77-1.305,1.558-1.305c0.253,0,0.76,0.057,1.183,0.217l-0.057,0.516c-0.31-0.141-0.732-0.225-1.061-0.225
		c-0.61,0-1.032,0.188-1.032,0.797c0,0.893,2.355,0.778,2.355,2.346c0,1.015-0.948,1.361-1.67,1.361
		c-0.459,0-0.919-0.057-1.342-0.226L19.865,31.219z"/>
</g>
<g>
	<path d="M24.731,25.854H24.14v-0.789h0.591V25.854z M24.14,27.129h0.591v4.786H24.14V27.129z"/>
</g>
<g>
	<path d="M29.594,27.768c-0.319-0.143-0.704-0.244-1.023-0.244c-1.154,0-1.802,0.834-1.802,1.998c0,1.089,0.657,1.998,1.737,1.998
		c0.375,0,0.722-0.083,1.079-0.215l0.056,0.555c-0.404,0.139-0.779,0.168-1.229,0.168c-1.539,0-2.29-1.173-2.29-2.506
		c0-1.474,0.948-2.506,2.365-2.506c0.572,0,0.985,0.131,1.154,0.188L29.594,27.768z"/>
</g>
<g>
	<path d="M30.9,24.877h0.591v3.059h0.019c0.253-0.525,0.788-0.92,1.492-0.92c1.286,0,1.633,0.854,1.633,2.037v2.862h-0.591v-2.854
		c0-0.824-0.159-1.537-1.135-1.537c-1.051,0-1.417,0.993-1.417,1.829v2.563H30.9V24.877z"/>
</g>
<g>
	<path d="M39.582,31.764c-0.413,0.17-0.948,0.264-1.389,0.264c-1.585,0-2.177-1.069-2.177-2.506c0-1.464,0.807-2.506,2.018-2.506
		c1.352,0,1.905,1.088,1.905,2.375v0.301h-3.275c0,1.013,0.544,1.828,1.577,1.828c0.431,0,1.061-0.178,1.342-0.356V31.764z
		 M39.291,29.184c0-0.836-0.337-1.66-1.22-1.66c-0.872,0-1.407,0.871-1.407,1.66H39.291z"/>
</g>
<g>
	<path d="M41.322,28.198c0-0.525,0-0.722-0.038-1.069h0.591v0.919h0.019c0.215-0.534,0.619-1.032,1.229-1.032
		c0.141,0,0.31,0.029,0.413,0.057v0.619c-0.122-0.037-0.281-0.057-0.431-0.057c-0.939,0-1.192,1.052-1.192,1.914v2.366h-0.591
		V28.198z"/>
</g>
<g>
	<path d="M44.866,28.256c0-0.367,0-0.742-0.038-1.127h0.573v0.854h0.019c0.197-0.432,0.553-0.967,1.548-0.967
		c1.182,0,1.633,0.788,1.633,1.84v3.06h-0.592v-2.91c0-0.901-0.318-1.481-1.135-1.481c-1.079,0-1.417,0.947-1.417,1.745v2.646
		h-0.591V28.256z"/>
</g>
<g>
	<path d="M57.201,30.788c0,0.366,0,0.741,0.037,1.127h-0.572v-0.854h-0.019c-0.197,0.432-0.553,0.967-1.548,0.967
		c-1.182,0-1.633-0.789-1.633-1.84v-3.059h0.591v2.908c0,0.901,0.319,1.482,1.136,1.482c1.079,0,1.417-0.947,1.417-1.744v-2.646
		h0.591V30.788z"/>
</g>
<g>
	<path d="M58.941,28.256c0-0.367,0-0.742-0.038-1.127h0.573v0.854h0.019c0.197-0.432,0.553-0.967,1.548-0.967
		c1.182,0,1.633,0.788,1.633,1.84v3.06h-0.592v-2.91c0-0.901-0.318-1.481-1.135-1.481c-1.079,0-1.417,0.947-1.417,1.745v2.646
		h-0.591V28.256z"/>
</g>
<g>
	<path d="M68.207,31.915h-0.591v-0.761h-0.019c-0.319,0.609-0.808,0.873-1.493,0.873c-1.313,0-1.971-1.089-1.971-2.506
		c0-1.454,0.563-2.506,1.971-2.506c0.939,0,1.408,0.686,1.493,0.92h0.019v-3.059h0.591V31.915z M66.199,31.52
		c1.051,0,1.417-1.125,1.417-1.998s-0.366-1.998-1.417-1.998c-1.126,0-1.417,1.068-1.417,1.998
		C64.782,30.45,65.073,31.52,66.199,31.52z"/>
</g>
<g>
	<path d="M74.669,31.915h-0.694l-1.624-4.786h0.647l1.323,4.138h0.019l1.389-4.138h0.619L74.669,31.915z"/>
</g>
<g>
	<path d="M80.642,31.764c-0.413,0.17-0.947,0.264-1.389,0.264c-1.586,0-2.177-1.069-2.177-2.506c0-1.464,0.808-2.506,2.018-2.506
		c1.351,0,1.904,1.088,1.904,2.375v0.301h-3.275c0,1.013,0.544,1.828,1.577,1.828c0.432,0,1.061-0.178,1.342-0.356V31.764z
		 M80.352,29.184c0-0.836-0.338-1.66-1.22-1.66c-0.872,0-1.408,0.871-1.408,1.66H80.352z"/>
</g>
<g>
	<path d="M82.384,28.198c0-0.525,0-0.722-0.038-1.069h0.591v0.919h0.019c0.216-0.534,0.62-1.032,1.23-1.032
		c0.14,0,0.309,0.029,0.412,0.057v0.619c-0.122-0.037-0.281-0.057-0.432-0.057c-0.938,0-1.191,1.052-1.191,1.914v2.366h-0.591
		V28.198z"/>
</g>
<g>
	<path d="M85.392,31.219c0.356,0.179,0.789,0.301,1.248,0.301c0.563,0,1.061-0.309,1.061-0.854c0-1.135-2.299-0.957-2.299-2.346
		c0-0.947,0.77-1.305,1.558-1.305c0.254,0,0.76,0.057,1.183,0.217l-0.057,0.516c-0.31-0.141-0.732-0.225-1.061-0.225
		c-0.609,0-1.032,0.188-1.032,0.797c0,0.893,2.355,0.778,2.355,2.346c0,1.015-0.948,1.361-1.671,1.361
		c-0.459,0-0.919-0.057-1.341-0.226L85.392,31.219z"/>
</g>
<g>
	<path d="M90.258,25.854h-0.591v-0.789h0.591V25.854z M89.667,27.129h0.591v4.786h-0.591V27.129z"/>
</g>
<g>
	<path d="M95.126,27.768c-0.319-0.143-0.703-0.244-1.022-0.244c-1.154,0-1.802,0.834-1.802,1.998c0,1.089,0.657,1.998,1.736,1.998
		c0.375,0,0.723-0.083,1.079-0.215l0.056,0.555c-0.403,0.139-0.778,0.168-1.229,0.168c-1.54,0-2.29-1.173-2.29-2.506
		c0-1.474,0.947-2.506,2.365-2.506c0.572,0,0.984,0.131,1.153,0.188L95.126,27.768z"/>
</g>
<g>
	<path d="M96.437,24.877h0.591v3.059h0.019c0.253-0.525,0.788-0.92,1.492-0.92c1.285,0,1.633,0.854,1.633,2.037v2.862H99.58v-2.854
		c0-0.824-0.159-1.537-1.135-1.537c-1.051,0-1.417,0.993-1.417,1.829v2.563h-0.591V24.877z"/>
</g>
<g>
	<path d="M105.121,31.764c-0.414,0.17-0.949,0.264-1.389,0.264c-1.586,0-2.178-1.069-2.178-2.506c0-1.464,0.809-2.506,2.018-2.506
		c1.352,0,1.906,1.088,1.906,2.375v0.301h-3.275c0,1.013,0.543,1.828,1.576,1.828c0.432,0,1.061-0.178,1.342-0.356V31.764z
		 M104.83,29.184c0-0.836-0.338-1.66-1.221-1.66c-0.873,0-1.406,0.871-1.406,1.66H104.83z"/>
</g>
<g>
	<path d="M106.848,28.198c0-0.525,0-0.722-0.037-1.069h0.592v0.919h0.02c0.215-0.534,0.617-1.032,1.229-1.032
		c0.141,0,0.311,0.029,0.412,0.057v0.619c-0.121-0.037-0.281-0.057-0.432-0.057c-0.938,0-1.191,1.052-1.191,1.914v2.366h-0.592
		V28.198z"/>
</g>
<g>
	<path d="M110.391,28.256c0-0.367,0-0.742-0.037-1.127h0.572v0.854h0.02c0.197-0.432,0.555-0.967,1.547-0.967
		c1.184,0,1.635,0.788,1.635,1.84v3.06h-0.592v-2.91c0-0.901-0.32-1.481-1.135-1.481c-1.08,0-1.418,0.947-1.418,1.745v2.646h-0.592
		V28.256z"/>
</g>
<path fill="#009EE0" d="M150.941,1.094c0,0.222,0,8.169,0,8.39c-0.209,0-2.74,0-2.947,0c0-0.221,0-5.442,0-5.442s-5.221,0-5.443,0
	c0-0.205,0-2.742,0-2.947C142.773,1.094,150.719,1.094,150.941,1.094"/>
<path d="M18.609,5.45c0-0.958-0.734-1.007-1.186-1.056V4.118l2.403-0.391v4.907h0.031c0.219-0.454,0.857-1.251,1.856-1.251
	c2.168,0,2.87,1.869,2.87,3.9c0,1.983-0.702,3.9-2.87,3.9c-0.904,0-1.716-0.536-1.888-0.829l-0.828,0.667h-0.389 M21.51,14.647
	c1.436,0,1.686-1.917,1.686-3.364c0-1.366-0.344-3.298-1.686-3.298c-1.248,0-1.685,1.511-1.685,3.298
	C19.826,13.413,20.2,14.647,21.51,14.647z"/>
<path d="M32.557,15.038c-0.188,0.049-0.577,0.146-1.14,0.146c-0.904,0-1.169-0.487-1.169-1.186h-0.032
	c-0.483,0.73-1.155,1.186-2.215,1.186c-1.076,0-2.039-0.782-2.1-1.836c-0.153-2.64,3.16-2.707,4.346-2.821v-0.015
	c0-1.137-0.015-2.592-1.326-2.592c-0.967,0-1.092,0.422-1.092,0.942c0,0.667-0.467,0.845-0.733,0.845
	c-0.421,0-0.748-0.292-0.748-0.73c0-1.057,1.513-1.593,2.589-1.593c2.138,0,2.528,1.073,2.528,2.584v4.03
	c0,0.568,0.186,0.764,0.67,0.764c0.141,0,0.281-0.033,0.422-0.065 M26.894,5.434c0-0.472,0.343-0.829,0.781-0.829
	c0.437,0,0.795,0.357,0.795,0.829c0,0.455-0.358,0.813-0.795,0.813C27.237,6.246,26.894,5.889,26.894,5.434z M30.248,11.063
	c-0.733,0.016-2.993,0.513-2.958,2.024c0.02,0.844,0.757,1.413,1.288,1.413c1.015,0,1.67-1.023,1.67-2.129V11.063z M29.639,5.434
	c0-0.472,0.344-0.829,0.78-0.829c0.453,0,0.796,0.357,0.796,0.829c0,0.455-0.343,0.813-0.796,0.813
	C29.983,6.246,29.639,5.889,29.639,5.434z"/>
<path d="M38.517,13.233h-0.031c-0.203,0.537-0.671,1.95-2.34,1.95c-1.311,0-1.997-0.942-1.997-2.454V9.106
	c0-0.976-0.717-1.024-1.186-1.056V7.773l2.403-0.39v4.988c0,1.35,0.436,1.982,1.248,1.982c1.014,0,1.903-1.527,1.903-3.006V9.106
	c0-0.976-0.718-1.024-1.186-1.056V7.773l2.402-0.39v6.077c0,0.976,0.718,1.024,1.186,1.057v0.276l-2.402,0.39"/>
<path fill="#1A171B" d="M46.664,13.981h-0.03c-0.141,0.438-0.921,1.202-1.794,1.202c-2.168,0-2.871-1.917-2.871-3.9
	s0.702-3.9,2.871-3.9c0.982,0,1.576,0.797,1.794,1.251h0.03V5.45c0-0.958-0.732-1.007-1.185-1.056V4.118l2.403-0.391v9.733
	c0,0.976,0.717,1.024,1.186,1.057v0.276l-2.403,0.39 M45.042,14.583c1.264,0,1.622-1.917,1.622-3.299
	c0-1.543-0.421-3.298-1.622-3.298c-1.326,0-1.685,1.933-1.685,3.298C43.357,12.698,43.607,14.583,45.042,14.583z"/>
<path d="M60.815,9.317c-0.375-0.894-0.64-1.463-1.607-1.495V7.546H62.5v0.276c-0.422,0-0.687,0.114-0.687,0.39
	c0,0.227,0.094,0.537,0.203,0.812l1.778,4.437l1.576-4.388c0.109-0.292,0.172-0.504,0.172-0.698c0-0.357-0.234-0.521-0.703-0.553
	V7.546h2.824v0.276c-0.874,0.065-1.092,0.26-1.529,1.446l-2.2,5.915h-0.733"/>
<path d="M75,14.745c0.655,0,1.186-0.146,1.186-1.202V9.106c0-0.976-0.718-1.024-1.186-1.056V7.773l2.402-0.39v1.739h0.031
	c0.296-0.813,0.843-1.739,2.028-1.739c0.344,0,0.78,0.26,0.78,0.747c0,0.472-0.327,0.765-0.749,0.765
	c-0.468,0-0.671-0.391-0.889-0.391c-0.281,0-1.202,0.65-1.202,2.584v2.454c0,1.056,0.53,1.202,1.186,1.202v0.276H75"/>
<path d="M85.477,9.366c-0.125-0.537-0.484-1.446-1.591-1.446c-0.578,0-1.296,0.261-1.296,1.024c0,0.926,1.342,1.397,2.216,1.917
	c0.796,0.455,1.45,0.91,1.45,2.129c0,1.397-1.138,2.193-2.87,2.193c-0.874,0-1.591-0.146-2.013-0.292l-0.109-1.804h0.391
	c0.156,0.568,0.53,1.56,1.841,1.56c1.014,0,1.545-0.764,1.545-1.315c0-1.154-1.997-1.724-2.855-2.39
	c-0.624-0.471-0.812-0.878-0.812-1.544c0-1.511,1.311-2.015,2.59-2.015c0.64,0,1.451,0.162,1.794,0.276l0.109,1.706"/>
<path d="M87.571,14.745c0.655,0,1.186-0.146,1.186-1.202V9.106c0-0.976-0.717-1.024-1.186-1.056V7.773l2.402-0.39v6.159
	c0,1.056,0.531,1.202,1.187,1.202v0.276h-3.589 M88.429,4.962c0-0.52,0.391-0.926,0.889-0.926c0.5,0,0.89,0.406,0.89,0.926
	c0,0.521-0.39,0.927-0.89,0.927C88.82,5.889,88.429,5.482,88.429,4.962z"/>
<path d="M97.556,14.925c-0.421,0.162-0.937,0.259-1.669,0.259c-2.746,0-3.962-1.608-3.962-4.127c0-2.161,0.967-3.673,3.369-3.673
	c1.061,0,2.449,0.324,2.449,1.512c0,0.471-0.328,0.763-0.733,0.763c-0.593,0-0.718-0.504-0.843-1.04
	c-0.078-0.358-0.358-0.699-1.076-0.699c-1.061,0-1.872,0.813-1.872,2.616c0,2.064,1.295,4.047,3.464,4.047
	c0.296,0,0.593-0.065,0.873-0.13"/>
<path d="M98.667,14.745c0.655,0,1.185-0.146,1.185-1.202V5.45c0-0.958-0.732-1.007-1.185-1.056V4.118l2.399-0.391v5.801h0.033
	c0.219-0.601,0.92-2.145,2.48-2.145c1.637,0,1.793,0.942,1.793,2.454v3.705c0,1.056,0.531,1.202,1.188,1.202v0.276h-3.59v-0.276
	c0.641,0,1.186-0.146,1.186-1.202v-3.348c0-1.397-0.029-2.032-1.045-2.032c-0.92,0-2.045,1.852-2.045,3.396v1.983
	c0,1.056,0.533,1.202,1.188,1.202v0.276h-3.586"/>
<path d="M112.844,14.892c-0.375,0.146-0.904,0.292-1.857,0.292c-2.418,0-3.773-1.381-3.773-4.111c0-2.372,0.92-3.688,3.166-3.688
	c1.404,0,2.668,1.235,2.668,3.122v0.357h-4.541c0,0.846,0.641,3.72,3.244,3.72c0.359,0,0.781-0.049,1.094-0.212 M111.658,10.327
	c0-1.322-0.281-2.407-1.482-2.407c-1.186,0-1.67,1.377-1.67,2.407H111.658z"/>
<path d="M180.373,14.892c-0.375,0.146-0.904,0.292-1.857,0.292c-2.418,0-3.773-1.381-3.773-4.111c0-2.372,0.92-3.688,3.166-3.688
	c1.404,0,2.668,1.235,2.668,3.122v0.357h-4.541c0,0.846,0.641,3.72,3.246,3.72c0.357,0,0.781-0.049,1.092-0.212 M179.188,10.327
	c0-1.322-0.281-2.407-1.482-2.407c-1.186,0-1.67,1.377-1.67,2.407H179.188z"/>
<path d="M55.431,14.892c-0.375,0.146-0.906,0.292-1.856,0.292c-2.419,0-3.776-1.381-3.776-4.111c0-2.372,0.92-3.688,3.167-3.688
	c1.405,0,2.669,1.235,2.669,3.122v0.357h-4.54c0,0.846,0.64,3.72,3.245,3.72c0.359,0,0.78-0.049,1.092-0.212 M54.245,10.327
	c0-1.322-0.281-2.407-1.482-2.407c-1.186,0-1.669,1.377-1.669,2.407H54.245z"/>
<path d="M16.515,14.892c-0.375,0.146-0.905,0.292-1.856,0.292c-2.418,0-3.776-1.381-3.776-4.111c0-2.372,0.921-3.688,3.168-3.688
	c1.404,0,2.667,1.235,2.667,3.122v0.357h-4.541c0,0.846,0.641,3.72,3.246,3.72c0.358,0,0.779-0.049,1.092-0.212 M15.33,10.327
	c0-1.322-0.282-2.407-1.482-2.407c-1.186,0-1.67,1.377-1.67,2.407H15.33z"/>
<path d="M114.223,14.745c0.656,0,1.188-0.146,1.188-1.202V9.106c0-0.976-0.719-1.024-1.188-1.056V7.773l2.404-0.39v1.739h0.031
	c0.295-0.813,0.842-1.739,2.025-1.739c0.346,0,0.781,0.26,0.781,0.747c0,0.472-0.328,0.765-0.748,0.765
	c-0.469,0-0.67-0.391-0.889-0.391c-0.281,0-1.201,0.65-1.201,2.584v2.454c0,1.056,0.529,1.202,1.186,1.202v0.276h-3.59"/>
<path d="M73.62,14.892c-0.374,0.146-0.904,0.292-1.856,0.292c-2.418,0-3.775-1.381-3.775-4.111c0-2.372,0.92-3.688,3.167-3.688
	c1.404,0,2.668,1.235,2.668,3.122v0.357h-4.54c0,0.846,0.64,3.72,3.245,3.72c0.359,0,0.781-0.049,1.092-0.212 M72.435,10.327
	c0-1.322-0.281-2.407-1.482-2.407c-1.186,0-1.669,1.377-1.669,2.407H72.435z"/>
<path d="M125.936,13.233h-0.031c-0.203,0.537-0.672,1.95-2.342,1.95c-1.311,0-1.996-0.942-1.996-2.454V9.106
	c0-0.976-0.717-1.024-1.186-1.056V7.773l2.402-0.39v4.988c0,1.35,0.436,1.982,1.248,1.982c1.014,0,1.904-1.527,1.904-3.006V9.106
	c0-0.976-0.719-1.024-1.188-1.056V7.773l2.402-0.39v6.077c0,0.976,0.719,1.024,1.186,1.057v0.276l-2.4,0.39"/>
<path d="M129.527,14.745c0.656,0,1.188-0.146,1.188-1.202V9.106c0-0.976-0.734-1.024-1.188-1.056V7.773l2.404-0.39v2.145h0.031
	c0.217-0.601,0.92-2.145,2.465-2.145c1.652,0,1.809,0.942,1.809,2.454v3.705c0,1.056,0.531,1.202,1.188,1.202v0.276h-3.59v-0.276
	c0.656,0,1.186-0.146,1.186-1.202v-3.348c0-1.397-0.014-2.032-1.045-2.032c-0.922,0-2.043,1.836-2.043,3.38v2
	c0,1.056,0.529,1.202,1.184,1.202v0.276h-3.588"/>
<path d="M142.729,13.722h-1.844c-0.498,0-1.277,0-1.277-0.65c0-0.357,0.188-0.601,0.279-0.731c0.344,0.162,0.797,0.244,1.422,0.244
	c1.871,0,2.855-0.926,2.855-2.568c0-0.745-0.223-1.256-0.428-1.582h0.002c0-0.034,0.002-0.068,0.012-0.104
	c0.063-0.297,0.391-0.623,1.174-0.664V7.39h-3.143c-0.078-0.004-0.166-0.006-0.254-0.006c-1.482,0-2.949,0.456-2.949,2.552
	c0,1.38,0.547,1.869,0.904,2.178c-0.172,0.194-0.67,0.812-0.67,1.413c0,0.683,0.404,0.991,0.67,1.154
	c-0.498,0.26-1.217,0.698-1.217,1.706c0,1.462,1.592,2.063,3.119,2.063c2.078,0,3.824-1.041,3.824-2.893
	C145.209,13.754,143.477,13.722,142.729,13.722 M141.34,7.92c1.123,0,1.529,0.976,1.529,2.193c0,0.861-0.174,1.934-1.484,1.934
	c-1.123,0-1.512-1.007-1.512-2.242C139.873,8.862,140.107,7.92,141.34,7.92z M141.465,17.914c-1.357,0-2.184-0.829-2.184-1.788
	c0-0.731,0.436-1.008,0.746-1.25h2.732c0.779,0,1.436,0.275,1.436,1.104C144.195,17.15,142.885,17.914,141.465,17.914z"/>
<path d="M7.574,13.722h-1.84c-0.5,0-1.28,0-1.28-0.65c0-0.357,0.187-0.601,0.281-0.731c0.343,0.162,0.796,0.244,1.419,0.244
	c1.873,0,2.855-0.926,2.855-2.568c0-0.745-0.22-1.256-0.425-1.582h0.002c0-0.034,0.003-0.068,0.01-0.104
	c0.061-0.297,0.393-0.623,1.174-0.664V7.39H6.627c-0.08-0.004-0.165-0.006-0.254-0.006c-1.482,0-2.949,0.456-2.949,2.552
	c0,1.38,0.546,1.869,0.905,2.178c-0.172,0.194-0.67,0.812-0.67,1.413c0,0.683,0.405,0.991,0.67,1.154
	c-0.5,0.26-1.217,0.698-1.217,1.706c0,1.462,1.592,2.063,3.12,2.063c2.075,0,3.823-1.041,3.823-2.893
	C10.054,13.754,8.323,13.722,7.574,13.722 M6.185,7.92c1.123,0,1.529,0.976,1.529,2.193c0,0.861-0.171,1.934-1.482,1.934
	c-1.123,0-1.512-1.007-1.512-2.242C4.719,8.862,4.953,7.92,6.185,7.92z M6.31,17.914c-1.357,0-2.184-0.829-2.184-1.788
	c0-0.731,0.438-1.008,0.749-1.25h2.731c0.78,0,1.435,0.275,1.435,1.104C9.04,17.15,7.729,17.914,6.31,17.914z"/>
<path d="M154.043,14.745c0.656,0,1.186-0.146,1.186-1.202V5.45c0-0.958-0.717-1.007-1.186-1.056V4.118l2.402-0.391v9.815
	c0,1.056,0.531,1.202,1.188,1.202v0.276h-3.59"/>
<path d="M163.969,13.233h-0.029c-0.205,0.537-0.672,1.95-2.342,1.95c-1.309,0-1.994-0.942-1.994-2.454V9.106
	c0-0.976-0.721-1.024-1.188-1.056V7.773l2.402-0.39v4.988c0,1.35,0.438,1.982,1.248,1.982c1.016,0,1.902-1.527,1.902-3.006V9.106
	c0-0.976-0.717-1.024-1.184-1.056V7.773l2.4-0.39v6.077c0,0.976,0.719,1.024,1.188,1.057v0.276l-2.404,0.39"/>
<path d="M167.641,14.339l4.182-6.191h-1.98c-1.107,0-1.326,0.487-1.545,1.219h-0.391l0.109-1.82h5.242v0.635l-4.166,6.158h2.045
	c1.436,0,1.652-0.211,1.998-1.187h0.389l-0.109,1.869h-5.773"/>
<path d="M181.742,14.745c0.654,0,1.184-0.146,1.184-1.202V9.106c0-0.976-0.715-1.024-1.184-1.056V7.773l2.402-0.39v1.739h0.031
	c0.297-0.813,0.842-1.739,2.027-1.739c0.344,0,0.779,0.26,0.779,0.747c0,0.472-0.326,0.765-0.748,0.765
	c-0.467,0-0.67-0.391-0.889-0.391c-0.281,0-1.201,0.65-1.201,2.584v2.454c0,1.056,0.529,1.202,1.186,1.202v0.276h-3.588"/>
<path d="M187.975,14.745c0.654,0,1.184-0.146,1.184-1.202V9.106c0-0.976-0.732-1.024-1.184-1.056V7.773l2.402-0.39v2.145h0.031
	c0.217-0.601,0.92-2.145,2.465-2.145c1.654,0,1.809,0.942,1.809,2.454v3.705c0,1.056,0.531,1.202,1.186,1.202v0.276h-3.588v-0.276
	c0.656,0,1.186-0.146,1.186-1.202v-3.348c0-1.397-0.014-2.032-1.045-2.032c-0.92,0-2.043,1.836-2.043,3.38v2
	c0,1.056,0.529,1.202,1.186,1.202v0.276h-3.588"/>
</svg>
